<svg width="41" height="37" viewBox="0 0 41 37" fill="none" xmlns="http://www.w3.org/2000/svg">
<g filter="url(#filter0_d_6_73)">
<path d="M30.5054 27V32C30.5054 32.9205 29.7592 33.6667 28.8387 33.6667H12.1721C11.2516 33.6667 10.5054 32.9205 10.5054 32V27H5.50541C4.58495 27 3.83875 26.2538 3.83875 25.3333V17C3.83875 7.79526 11.3007 0.333344 20.5054 0.333344C29.7101 0.333344 37.1721 7.79526 37.1721 17V25.3333C37.1721 26.2538 36.4259 27 35.5054 27H30.5054ZM13.0054 20.3333C14.3861 20.3333 15.5054 19.214 15.5054 17.8333C15.5054 16.4527 14.3861 15.3333 13.0054 15.3333C11.6247 15.3333 10.5054 16.4527 10.5054 17.8333C10.5054 19.214 11.6247 20.3333 13.0054 20.3333ZM28.0054 20.3333C29.3861 20.3333 30.5054 19.214 30.5054 17.8333C30.5054 16.4527 29.3861 15.3333 28.0054 15.3333C26.6247 15.3333 25.5054 16.4527 25.5054 17.8333C25.5054 19.214 26.6247 20.3333 28.0054 20.3333Z" fill="white" fill-opacity="0.5" shape-rendering="crispEdges"/>
</g>
<defs>
<filter id="filter0_d_6_73" x="-0.161255" y="0.333344" width="41.3334" height="41.3333" filterUnits="userSpaceOnUse" color-interpolation-filters="sRGB">
<feFlood flood-opacity="0" result="BackgroundImageFix"/>
<feColorMatrix in="SourceAlpha" type="matrix" values="0 0 0 0 0 0 0 0 0 0 0 0 0 0 0 0 0 0 127 0" result="hardAlpha"/>
<feOffset dy="4"/>
<feGaussianBlur stdDeviation="2"/>
<feComposite in2="hardAlpha" operator="out"/>
<feColorMatrix type="matrix" values="0 0 0 0 0 0 0 0 0 0 0 0 0 0 0 0 0 0 0.25 0"/>
<feBlend mode="normal" in2="BackgroundImageFix" result="effect1_dropShadow_6_73"/>
<feBlend mode="normal" in="SourceGraphic" in2="effect1_dropShadow_6_73" result="shape"/>
</filter>
</defs>
</svg>
