<svg width="38" height="39" viewBox="0 0 38 39" fill="none" xmlns="http://www.w3.org/2000/svg">
<g filter="url(#filter0_d_4_36)">
<path d="M29 12.3333H32.3333C33.2538 12.3333 34 13.0795 34 14V34C34 34.9205 33.2538 35.6667 32.3333 35.6667H5.66667C4.7462 35.6667 4 34.9205 4 34V14C4 13.0795 4.7462 12.3333 5.66667 12.3333H9V10.6667C9 5.14381 13.4771 0.666656 19 0.666656C24.5228 0.666656 29 5.14381 29 10.6667V12.3333ZM17.3333 25.2207V29H20.6667V25.2207C21.663 24.6443 22.3333 23.5672 22.3333 22.3333C22.3333 20.4923 20.841 19 19 19C17.159 19 15.6667 20.4923 15.6667 22.3333C15.6667 23.5672 16.337 24.6443 17.3333 25.2207ZM25.6667 12.3333V10.6667C25.6667 6.98476 22.6818 3.99999 19 3.99999C15.3181 3.99999 12.3333 6.98476 12.3333 10.6667V12.3333H25.6667Z" fill="white" fill-opacity="0.5" shape-rendering="crispEdges"/>
</g>
<defs>
<filter id="filter0_d_4_36" x="0" y="0.666656" width="38" height="43" filterUnits="userSpaceOnUse" color-interpolation-filters="sRGB">
<feFlood flood-opacity="0" result="BackgroundImageFix"/>
<feColorMatrix in="SourceAlpha" type="matrix" values="0 0 0 0 0 0 0 0 0 0 0 0 0 0 0 0 0 0 127 0" result="hardAlpha"/>
<feOffset dy="4"/>
<feGaussianBlur stdDeviation="2"/>
<feComposite in2="hardAlpha" operator="out"/>
<feColorMatrix type="matrix" values="0 0 0 0 0 0 0 0 0 0 0 0 0 0 0 0 0 0 0.25 0"/>
<feBlend mode="normal" in2="BackgroundImageFix" result="effect1_dropShadow_4_36"/>
<feBlend mode="normal" in="SourceGraphic" in2="effect1_dropShadow_4_36" result="shape"/>
</filter>
</defs>
</svg>
